<svg height='30px' width='300px'  fill="#333333" xmlns="http://www.w3.org/2000/svg" data-name="Layer 1" viewBox="0 0 32 32" x="0px" y="0px"><title>phone smartphone double sync</title><path d="M14,28.5V26H1v2.5A2.5,2.5,0,0,0,3.5,31H15.06A3.44,3.44,0,0,1,14,28.5Zm-4.5,1a1,1,0,1,1,1-1A1,1,0,0,1,9.5,29.5Z"></path><path d="M28.5,1H27V2.5a.5.5,0,0,1-.5.5h-7a.5.5,0,0,1-.5-.5V1H17.5A2.5,2.5,0,0,0,15,3.5v25A2.5,2.5,0,0,0,17.5,31h11A2.5,2.5,0,0,0,31,28.5V3.5A2.5,2.5,0,0,0,28.5,1Zm-4,28h-3a.5.5,0,0,1,0-1h3a.5.5,0,0,1,0,1Z"></path><path d="M3.5,1A2.5,2.5,0,0,0,1,3.5V25H14V3.5A3.44,3.44,0,0,1,15.06,1Zm7,3h-3a.5.5,0,0,1,0-1h3a.5.5,0,0,1,0,1Z"></path></svg>