<svg height='30px' width='300px'  fill="#333333" xmlns="http://www.w3.org/2000/svg" data-name="Camada 1" viewBox="0 0 100 100" x="0px" y="0px"><title>Bug_1</title><path d="M68.335,18.33c0,.36-.01.72-.03,1.07a62.081,62.081,0,0,0-36.60986,0c-.02-.35-.03-.71-.03-1.07a18.335,18.335,0,0,1,36.66992,0Z"></path><path d="M97.75,53.11a24.809,24.809,0,0,0-4.08008-3.17c-4.74-2.84-9.0199-2.18-12.91992-.73V34.4c3.42993-1.82,6.76-4.28,8.04-9.36.28-1.12.47-2.26.6499-3.37a15.844,15.844,0,0,1,1.42-5.21,3.1798,3.1798,0,0,0,.44006-1.59,2.99792,2.99792,0,0,0-5.53-1.59,20.33277,20.33277,0,0,0-2.25,7.43c-.17,1.02-.33008,1.99005-.55,2.87a7.49011,7.49011,0,0,1-3.8999,4.87,58.04129,58.04129,0,0,0-58.15015,0A7.505,7.505,0,0,1,17.03,23.58c-.22-.88-.38-1.85-.55-2.87a20.33277,20.33277,0,0,0-2.25-7.43,2.89746,2.89746,0,0,0-2.51-1.4,3.01071,3.01071,0,0,0-2.58,4.58,15.844,15.844,0,0,1,1.42,5.21c.17993,1.11.36987,2.25.6499,3.37,1.28,5.08,4.61011,7.54,8.04,9.36V49.21c-3.9-1.45-8.17993-2.11-12.90991.73A24.47608,24.47608,0,0,0,2.25,53.11,3.00016,3.00016,0,1,0,6.34009,57.5a18.29733,18.29733,0,0,1,3.08984-2.41c3.17-1.91,5.74-1.21,9.87012.64a62.34805,62.34805,0,0,0,2.52,16.97c-.06006.03-.13013.06-.19007.09-4.14,2-8.84,4.28-10.42,10.54-.28,1.13-.47,2.27-.6499,3.37005a15.83916,15.83916,0,0,1-1.42,5.22,3.01073,3.01073,0,0,0,2.58,4.58,2.88567,2.88567,0,0,0,2.51-1.41,20.34222,20.34222,0,0,0,2.25-7.42c.17-1.03.33008-2,.55-2.87.84-3.36,3.13989-4.63,7.11-6.56,3.74,6.96,9.13,10.06,14.42005,13.09A41.97185,41.97185,0,0,1,47.88,97.88L50,100l2.12-2.12a41.97185,41.97185,0,0,1,9.31994-6.55C66.73,88.3,72.12,85.2,75.86,78.24c3.97009,1.93,6.27,3.2,7.11,6.56.22.87.38,1.84.55,2.87a20.34222,20.34222,0,0,0,2.25,7.42,2.981,2.981,0,0,0,4.97.15,3.03289,3.03289,0,0,0,.12-3.32,15.84356,15.84356,0,0,1-1.42-5.21c-.17993-1.11-.36987-2.25-.6499-3.38C87.21,77.07,82.51,74.79,78.36,72.79l-.18006-.09A62.34805,62.34805,0,0,0,80.7,55.73c4.13013-1.84,6.70007-2.55,9.87012-.64a18.29733,18.29733,0,0,1,3.08984,2.41A3.00016,3.00016,0,1,0,97.75,53.11ZM61.56006,63.26a2.99813,2.99813,0,0,1-4.24,4.24L50,60.18,42.67993,67.5a2.99813,2.99813,0,0,1-4.24-4.24L45.76,55.94l-7.32007-7.32a2.99813,2.99813,0,1,1,4.24-4.24L50,51.7l7.32007-7.32a2.99813,2.99813,0,1,1,4.24,4.24L54.24,55.94Z"></path></svg>