<svg height='30px' width='300px'  fill="#333333 " xmlns="http://www.w3.org/2000/svg" data-name="Layer 1" viewBox="0 0 100 100" x="0px" y="0px"><title>Artboard 22</title><path d="M54.52,93.52H29.94L24.47,99,4.93,80,18.92,66A21.34,21.34,0,0,1,41,61l3.07,1.08H63a6,6,0,0,1,6,6.14A6.12,6.12,0,0,1,62.76,74H51.4a2.31,2.31,0,0,0,0,4.63H62.76A10.8,10.8,0,0,0,73.59,68.41s0-.1,0-.14L84.09,56.45a6.36,6.36,0,0,1,8.73-.85,6.19,6.19,0,0,1,.72,8.83l-21,24a14.72,14.72,0,0,1-11.09,5ZM81.18,38.78a6,6,0,0,0,.31,1.92,6,6,0,0,1-5.74,7.91A6,6,0,0,0,70,52.81a6,6,0,0,1-9.29,3,6,6,0,0,0-7.15,0,6,6,0,0,1-9.29-3,6,6,0,0,0-5.79-4.2,6,6,0,0,1-5.74-7.91,6,6,0,0,0-2.21-6.8,6,6,0,0,1,0-9.77,6,6,0,0,0,2.21-6.8,6,6,0,0,1,5.74-7.91,6,6,0,0,0,5.79-4.2,6,6,0,0,1,9.29-3,6,6,0,0,0,7.15,0,6,6,0,0,1,9.29,3,6,6,0,0,0,5.79,4.2,6,6,0,0,1,5.74,7.91,6,6,0,0,0,2.21,6.8,6,6,0,0,1,0,9.77A6,6,0,0,0,81.18,38.78ZM65.4,22.57a3.34,3.34,0,0,0-4.72,0l-5.79,5.79L53.51,27a3.34,3.34,0,0,0-4.72,4.72l1.38,1.38,2.36,2.36a3.34,3.34,0,0,0,4.72,0l2.36-2.36,5.79-5.79A3.34,3.34,0,0,0,65.4,22.57Z"></path></svg>