<svg height='30px' width='300px'  fill="#333333" xmlns="http://www.w3.org/2000/svg" xmlns:xlink="http://www.w3.org/1999/xlink" version="1.1" x="0px" y="0px" viewBox="0 0 128 128" style="enable-background:new 0 0 128 128;" xml:space="preserve"><g><g><g><path d="M108.9,126H43c-0.8,0-1.5-0.7-1.5-1.5s0.7-1.5,1.5-1.5h65.9c0.8,0,1.5,0.7,1.5,1.5S109.8,126,108.9,126z     "></path><path d="M99.5,126c-0.7,0-1.3-0.4-1.5-1.1l-5.2-16.8c-0.3-0.8,0.2-1.7,1-1.9c0.8-0.3,1.7,0.2,1.9,1l5.2,16.8     c0.3,0.8-0.2,1.7-1,1.9C99.8,126,99.6,126,99.5,126z"></path><path d="M52.5,126c-0.2,0-0.3,0-0.5-0.1c-0.8-0.3-1.3-1.1-1-1.9l5.3-16.8c0.3-0.8,1.1-1.3,1.9-1     c0.8,0.3,1.3,1.1,1,1.9l-5.3,16.8C53.7,125.6,53.1,126,52.5,126z"></path><path d="M28,108.2h96V47.7h-5.7v52.5c0,0.9-0.7,1.5-1.5,1.5H35.2c-0.8,0-1.5-0.7-1.5-1.5v-42H28V108.2z"></path></g><g><path d="M43,41.6c0.2,1,0.4,1.9,0.5,2.9c0,0,0,0,0,0c1.5,0,2.7,1.2,2.7,2.7c0,1.5-1.2,2.6-2.6,2.7v2.6h71.6V41.6     H43z M53,49.9c-1.5,0-2.7-1.2-2.7-2.7c0-1.5,1.2-2.7,2.7-2.7c1.5,0,2.7,1.2,2.7,2.7C55.7,48.6,54.5,49.9,53,49.9z M62.5,49.9     c-1.5,0-2.7-1.2-2.7-2.7c0-1.5,1.2-2.7,2.7-2.7c1.5,0,2.7,1.2,2.7,2.7C65.2,48.6,64,49.9,62.5,49.9z M98.2,48.7H71.3     c-0.8,0-1.5-0.7-1.5-1.5s0.7-1.5,1.5-1.5h26.9c0.8,0,1.5,0.7,1.5,1.5S99.1,48.7,98.2,48.7z M111.2,48.7h-7.5     c-0.8,0-1.5-0.7-1.5-1.5s0.7-1.5,1.5-1.5h7.5c0.8,0,1.5,0.7,1.5,1.5S112,48.7,111.2,48.7z"></path><path d="M43.6,55.6v1.2c0,0.9-0.7,1.5-1.5,1.5h-5.4v40.4h78.5V55.6H43.6z M40.9,62.4c0-0.9,0.7-1.5,1.5-1.5h19.1     c0.8,0,1.5,0.7,1.5,1.5V80c0,0.9-0.7,1.5-1.5,1.5H42.4c-0.8,0-1.5-0.7-1.5-1.5V62.4z M69.9,93H42.4c-0.8,0-1.5-0.7-1.5-1.5     c0-0.9,0.7-1.5,1.5-1.5h27.5c0.8,0,1.5,0.7,1.5,1.5C71.4,92.3,70.8,93,69.9,93z M65.8,78c0-0.9,0.7-1.5,1.5-1.5h22.6     c0.8,0,1.5,0.7,1.5,1.5c0,0.9-0.7,1.5-1.5,1.5H67.3C66.5,79.5,65.8,78.8,65.8,78z M109.6,93H80.1c-0.8,0-1.5-0.7-1.5-1.5     c0-0.9,0.7-1.5,1.5-1.5h29.5c0.8,0,1.5,0.7,1.5,1.5C111.1,92.3,110.4,93,109.6,93z M109.6,66H67.3c-0.8,0-1.5-0.7-1.5-1.5     s0.7-1.5,1.5-1.5h42.2c0.8,0,1.5,0.7,1.5,1.5S110.4,66,109.6,66z"></path><rect x="43.9" y="63.9" width="16" height="14.5"></rect></g><g><path d="M4,55.2h36.6v-7.9c0-11.1-8.2-20.1-18.3-20.1S4,36.2,4,47.3V55.2z"></path><path d="M22.1,2c-6.2,0-11.2,4.9-11.2,11s5,11,11.2,11s11.2-4.9,11.2-11S28.2,2,22.1,2z"></path></g></g></g></svg>