<svg height='30px' width='300px'  fill="#333333" xmlns="http://www.w3.org/2000/svg" xmlns:xlink="http://www.w3.org/1999/xlink" version="1.1" x="0px" y="0px" viewBox="0 0 100 100" style="enable-background:new 0 0 100 100;" xml:space="preserve"><g><path d="M78.8,69.1L78.8,69.1l-0.2-0.6C73.2,58.2,62.4,51.2,50,51.2s-23.2,7-28.6,17.2l-0.2,0.6l0,0c-0.1,0.2-0.1,0.5-0.1,0.8v2.5   c0,1.5,1.3,2.8,2.8,2.8H50h26.2c1.5,0,2.8-1.3,2.8-2.8v-2.5C79,69.6,78.9,69.3,78.8,69.1z"></path><path d="M16.5,66.2l0.1-0.3c3.1-5.8,7.5-10.5,12.7-13.9c-2.8-1.3-6-2-9.3-2C11.5,50,4,54.9,0.3,62l-0.2,0.4l0,0   C0,62.6,0,62.7,0,62.9v1.7c0,1.1,0.9,1.9,1.9,1.9h14.4L16.5,66.2z"></path><circle cx="20" cy="34.6" r="9.3"></circle><path d="M83.5,66.2L83.4,66c-3.1-5.8-7.5-10.5-12.7-13.9c2.8-1.3,6-2,9.3-2c8.6,0,16,4.8,19.8,11.9l0.2,0.4l0,0   c0.1,0.2,0.1,0.4,0.1,0.5v1.7c0,1.1-0.9,1.9-1.9,1.9H83.7L83.5,66.2z"></path><circle cx="80" cy="34.6" r="9.3"></circle><circle cx="49.9" cy="32.5" r="14.4"></circle></g></svg>